<?xml version="1.0" standalone="no"?>
<!DOCTYPE svg PUBLIC "-//W3C//DTD SVG 20010904//EN"
 "http://www.w3.org/TR/2001/REC-SVG-20010904/DTD/svg10.dtd">
<svg version="1.0" xmlns="http://www.w3.org/2000/svg"
 width="260.000000pt" height="260.000000pt" viewBox="0 0 260.000000 260.000000"
 preserveAspectRatio="xMidYMid meet">
<metadata>
Created by potrace 1.11, written by Peter Selinger 2001-2013
</metadata>
<g transform="translate(0.000000,260.000000) scale(0.100000,-0.100000)"
fill="#000000" stroke="none">
<path d="M1555 2252 c-115 -40 -200 -114 -255 -222 -45 -89 -45 -110 0 -43 48
72 104 124 175 161 41 21 67 27 148 30 89 4 101 2 151 -22 99 -48 176 -155
202 -276 17 -81 11 -182 -12 -239 -33 -79 -138 -202 -354 -414 -150 -147 -236
-241 -257 -277 -38 -65 -69 -178 -78 -281 l-6 -74 26 83 c57 188 111 256 340
427 147 111 262 220 394 375 115 136 140 233 102 393 -23 96 -46 148 -98 219
-45 62 -155 144 -217 163 -67 20 -198 19 -261 -3z m303 -43 c52 -25 74 -45
130 -115 86 -106 122 -192 122 -290 0 -121 -24 -161 -27 -46 -1 37 -9 92 -18
122 -9 30 -17 63 -19 72 -3 23 -63 114 -106 162 -66 74 -161 115 -269 117 -55
2 -55 2 -16 9 64 12 135 1 203 -31z"/>
<path d="M556 2130 c-159 -51 -255 -173 -277 -353 -28 -234 88 -388 456 -607
254 -151 370 -256 447 -405 44 -83 64 -104 36 -38 -6 15 -10 34 -9 42 1 8 -2
10 -10 5 -9 -5 -10 -2 -6 10 5 11 3 15 -5 10 -8 -5 -9 -2 -5 10 6 16 -17 76
-29 76 -2 0 2 -13 11 -30 22 -43 18 -50 -6 -10 -67 111 -212 250 -386 371
-104 73 -153 111 -249 196 -111 98 -175 237 -158 340 7 46 8 47 15 18 3 -16 7
-46 8 -66 1 -41 66 -179 106 -227 37 -44 158 -145 330 -274 130 -97 210 -172
294 -273 l33 -40 -34 49 c-56 83 -166 186 -330 309 -193 145 -256 201 -308
279 -59 89 -71 137 -55 229 21 116 43 167 94 219 64 65 139 93 242 88 63 -2
88 -9 155 -42 67 -33 97 -57 199 -160 66 -66 105 -102 87 -78 -19 23 -35 50
-37 60 -1 9 -8 16 -15 14 -7 -2 -10 3 -7 12 3 8 -2 20 -11 28 -16 12 -16 11
-2 -7 14 -19 14 -19 -3 -6 -10 8 -16 20 -13 27 3 7 -3 18 -12 26 -16 12 -16
11 -2 -7 15 -20 14 -20 -8 -1 -23 20 -31 42 -9 30 6 -4 -1 7 -17 24 -16 17
-33 29 -38 26 -5 -3 -22 6 -40 21 -38 32 -128 78 -187 96 -35 10 -40 14 -25
20 11 4 -21 8 -71 8 -61 0 -109 -6 -149 -19z m499 -150 c10 -11 16 -20 13 -20
-3 0 -13 9 -23 20 -10 11 -16 20 -13 20 3 0 13 -9 23 -20z"/>
</g>
</svg>
